<svg xmlns="http://www.w3.org/2000/svg" viewBox="0 0 96 96" role="img" aria-label="Age Android icon">
  <defs>
    <linearGradient id="g" x1="18" y1="12" x2="82" y2="88" gradientUnits="userSpaceOnUse">
      <stop stop-color="#42d392"/>
      <stop offset="1" stop-color="#1f8fff"/>
    </linearGradient>
  </defs>
  <rect width="96" height="96" rx="23" fill="#101828"/>
  <path d="M28 41c0-11.046 8.954-20 20-20s20 8.954 20 20v5H28v-5Z" fill="url(#g)"/>
  <path d="M23 44h50a7 7 0 0 1 7 7v21a7 7 0 0 1-7 7H23a7 7 0 0 1-7-7V51a7 7 0 0 1 7-7Z" fill="#f8fafc"/>
  <path d="M39 44v-5a9 9 0 0 1 18 0v5" fill="none" stroke="#101828" stroke-width="6" stroke-linecap="round"/>
  <circle cx="48" cy="60" r="5" fill="#1f8fff"/>
  <path d="M48 64v7" stroke="#1f8fff" stroke-width="5" stroke-linecap="round"/>
  <path d="M35 21 29 11M61 21l6-10" stroke="#42d392" stroke-width="5" stroke-linecap="round"/>
</svg>
